<svg xmlns="http://www.w3.org/2000/svg" xmlns:xlink="http://www.w3.org/1999/xlink" width="1080" zoomAndPan="magnify" viewBox="0 0 810 809.999993" height="1080" preserveAspectRatio="xMidYMid meet" version="1.0"><path fill="#543b79" d="M 742.5 0 L 67.5 0 C 30.238281 0 0 30.207031 0 67.5 L 0 742.5 C 0 779.792969 30.238281 810 67.5 810 L 742.5 810 C 779.761719 810 810 779.792969 810 742.5 L 810 67.5 C 810 30.207031 779.761719 0 742.5 0 Z M 601.1875 568.789062 L 601.1875 568.855469 C 594.4375 585.125 583.738281 599.46875 570.039062 610.503906 C 555.863281 621.980469 537.90625 631.429688 515.800781 638.179688 C 493.730469 645.03125 467.472656 648.472656 437.0625 648.472656 L 219.984375 648.472656 L 219.984375 175.972656 L 449.550781 175.972656 C 492.007812 175.972656 526.027344 185.523438 551.476562 204.996094 C 577.125 224.574219 589.882812 253.734375 589.882812 293.085938 C 589.882812 316.878906 584.078125 337.296875 572.398438 354.171875 C 560.789062 370.945312 544.050781 384.074219 522.449219 393.1875 L 522.449219 394.738281 C 551.273438 400.816406 573.582031 414.484375 588.261719 435.746094 C 602.945312 457.007812 610.46875 483.875 610.46875 516.308594 C 610.46875 534.464844 606.960938 551.746094 600.34375 567.878906 Z M 601.1875 568.789062 " fill-opacity="1" fill-rule="nonzero"/><path fill="#543b79" d="M 507.5 452.417969 C 493.660156 439.761719 474.222656 433.585938 449.109375 433.585938 L 303.242188 433.585938 L 303.242188 581.007812 L 449.515625 581.007812 C 474.492188 581.007812 494.066406 574.527344 507.902344 561.429688 C 521.742188 548.4375 528.828125 529.910156 528.828125 506.082031 C 528.59375 482.792969 521.742188 464.769531 507.902344 452.417969 Z M 507.5 452.417969 " fill-opacity="1" fill-rule="nonzero"/><path fill="#543b79" d="M 487.113281 357.140625 L 487.25 357.140625 C 500.613281 345.800781 507.160156 329.570312 507.160156 308.40625 C 507.160156 284.648438 501.253906 267.773438 489.273438 258.121094 C 477.394531 248.5 460.25 243.507812 437.703125 243.507812 L 302.703125 243.507812 L 302.703125 373.882812 L 437.703125 373.882812 C 457.378906 373.882812 474.152344 368.144531 487.113281 357.140625 Z M 487.113281 357.140625 " fill-opacity="1" fill-rule="nonzero"/></svg>