<svg xmlns="http://www.w3.org/2000/svg" xmlns:xlink="http://www.w3.org/1999/xlink" width="1080" zoomAndPan="magnify" viewBox="0 0 810 809.999993" height="1080" preserveAspectRatio="xMidYMid meet" version="1.0"><defs><clipPath id="d3c833a937"><path d="M 33.414062 0 L 776.664062 0 L 776.664062 810 L 33.414062 810 Z M 33.414062 0 " clip-rule="nonzero"/></clipPath></defs><g clip-path="url(#d3c833a937)"><path fill="#2196f3" d="M 771.972656 5.535156 C 771.183594 4.660156 770.308594 3.878906 769.351562 3.191406 C 768.394531 2.5 767.378906 1.917969 766.300781 1.441406 C 765.222656 0.964844 764.105469 0.605469 762.949219 0.363281 C 761.796875 0.117188 760.628906 0 759.453125 0 L 50.625 0 C 50.035156 -0.00390625 49.445312 0.0234375 48.859375 0.0820312 C 48.269531 0.140625 47.6875 0.230469 47.113281 0.351562 C 46.535156 0.472656 45.964844 0.621094 45.402344 0.800781 C 44.839844 0.980469 44.289062 1.1875 43.75 1.425781 C 43.210938 1.664062 42.683594 1.925781 42.171875 2.21875 C 41.660156 2.511719 41.164062 2.832031 40.683594 3.175781 C 40.207031 3.519531 39.746094 3.886719 39.304688 4.28125 C 38.867188 4.671875 38.449219 5.085938 38.050781 5.523438 C 37.652344 5.960938 37.28125 6.414062 36.933594 6.890625 C 36.582031 7.367188 36.261719 7.859375 35.964844 8.367188 C 35.664062 8.878906 35.394531 9.402344 35.152344 9.9375 C 34.910156 10.476562 34.695312 11.027344 34.511719 11.585938 C 34.328125 12.144531 34.171875 12.714844 34.046875 13.289062 C 33.921875 13.867188 33.828125 14.449219 33.761719 15.035156 C 33.699219 15.621094 33.664062 16.207031 33.660156 16.796875 C 33.660156 17.386719 33.6875 17.976562 33.746094 18.5625 L 101.253906 693.5625 C 101.332031 694.367188 101.46875 695.164062 101.664062 695.949219 C 101.859375 696.734375 102.109375 697.503906 102.414062 698.253906 C 102.71875 699.003906 103.074219 699.730469 103.484375 700.425781 C 103.894531 701.125 104.351562 701.792969 104.855469 702.425781 C 105.359375 703.058594 105.90625 703.652344 106.5 704.207031 C 107.089844 704.761719 107.714844 705.269531 108.378906 705.734375 C 109.042969 706.195312 109.738281 706.609375 110.460938 706.976562 C 111.183594 707.339844 111.929688 707.648438 112.695312 707.90625 L 416.480469 809.15625 C 418.246094 809.726562 420.058594 810.007812 421.914062 810 C 423.960938 810 425.941406 809.640625 427.855469 808.921875 L 697.882812 707.671875 C 699.363281 707.121094 700.742188 706.382812 702.011719 705.449219 C 703.285156 704.515625 704.40625 703.425781 705.371094 702.179688 C 706.335938 700.933594 707.113281 699.578125 707.699219 698.113281 C 708.285156 696.648438 708.660156 695.132812 708.820312 693.5625 L 776.328125 18.5625 C 776.441406 17.386719 776.433594 16.207031 776.300781 15.03125 C 776.167969 13.855469 775.910156 12.707031 775.535156 11.585938 C 775.160156 10.464844 774.675781 9.394531 774.074219 8.375 C 773.472656 7.351562 772.773438 6.40625 771.972656 5.535156 Z M 771.972656 5.535156 " fill-opacity="1" fill-rule="nonzero"/></g><path fill="#fafafa" d="M 421.914062 641.25 C 420.09375 641.246094 418.316406 640.964844 416.582031 640.40625 L 264.691406 589.78125 C 263.28125 589.3125 261.957031 588.667969 260.71875 587.851562 C 259.480469 587.03125 258.371094 586.066406 257.386719 584.957031 C 256.402344 583.847656 255.582031 582.625 254.917969 581.296875 C 254.257812 579.96875 253.777344 578.578125 253.484375 577.125 L 236.605469 492.75 C 236.496094 492.207031 236.410156 491.664062 236.355469 491.113281 C 236.296875 490.5625 236.265625 490.011719 236.265625 489.457031 C 236.261719 488.90625 236.285156 488.355469 236.335938 487.804688 C 236.386719 487.253906 236.464844 486.707031 236.570312 486.164062 C 236.675781 485.621094 236.808594 485.082031 236.964844 484.554688 C 237.125 484.023438 237.308594 483.503906 237.515625 482.992188 C 237.726562 482.480469 237.957031 481.980469 238.214844 481.488281 C 238.476562 481 238.757812 480.527344 239.0625 480.0625 C 239.367188 479.601562 239.691406 479.15625 240.042969 478.730469 C 240.390625 478.300781 240.757812 477.886719 241.148438 477.496094 C 241.535156 477.101562 241.945312 476.730469 242.371094 476.375 C 242.796875 476.023438 243.238281 475.691406 243.695312 475.382812 C 244.152344 475.074219 244.625 474.789062 245.113281 474.523438 C 245.597656 474.261719 246.097656 474.023438 246.605469 473.808594 C 247.117188 473.59375 247.636719 473.40625 248.164062 473.242188 C 248.691406 473.078125 249.226562 472.941406 249.769531 472.832031 C 250.3125 472.722656 250.855469 472.636719 251.40625 472.582031 C 251.957031 472.523438 252.507812 472.492188 253.0625 472.492188 C 253.613281 472.488281 254.167969 472.511719 254.714844 472.5625 C 255.265625 472.617188 255.8125 472.695312 256.355469 472.800781 C 256.898438 472.90625 257.4375 473.035156 257.964844 473.195312 C 258.496094 473.351562 259.015625 473.535156 259.527344 473.746094 C 260.039062 473.953125 260.542969 474.1875 261.03125 474.445312 C 261.519531 474.703125 261.992188 474.984375 262.457031 475.289062 C 262.917969 475.59375 263.363281 475.921875 263.789062 476.269531 C 264.21875 476.621094 264.632812 476.988281 265.023438 477.378906 C 265.417969 477.765625 265.789062 478.175781 266.140625 478.601562 C 266.496094 479.027344 266.828125 479.46875 267.136719 479.925781 C 267.445312 480.382812 267.730469 480.855469 267.992188 481.34375 C 268.257812 481.828125 268.496094 482.328125 268.710938 482.835938 C 268.921875 483.347656 269.113281 483.867188 269.273438 484.394531 C 269.4375 484.921875 269.574219 485.457031 269.683594 486 L 284.636719 560.757812 L 421.578125 606.488281 L 541.941406 561.363281 L 604.386719 202.5 L 219.390625 202.5 C 218.839844 202.5 218.289062 202.472656 217.738281 202.417969 C 217.1875 202.363281 216.640625 202.285156 216.097656 202.175781 C 215.558594 202.066406 215.023438 201.933594 214.492188 201.773438 C 213.964844 201.613281 213.445312 201.425781 212.933594 201.214844 C 212.421875 201.003906 211.921875 200.769531 211.4375 200.507812 C 210.949219 200.246094 210.476562 199.964844 210.015625 199.65625 C 209.554688 199.347656 209.113281 199.019531 208.683594 198.667969 C 208.257812 198.320312 207.847656 197.949219 207.457031 197.558594 C 207.066406 197.167969 206.695312 196.757812 206.347656 196.332031 C 205.996094 195.902344 205.667969 195.460938 205.359375 195 C 205.050781 194.539062 204.769531 194.066406 204.507812 193.578125 C 204.246094 193.09375 204.011719 192.59375 203.800781 192.082031 C 203.589844 191.570312 203.402344 191.050781 203.242188 190.523438 C 203.082031 189.996094 202.945312 189.460938 202.839844 188.917969 C 202.730469 188.375 202.652344 187.828125 202.597656 187.277344 C 202.542969 186.730469 202.515625 186.175781 202.515625 185.625 C 202.515625 185.074219 202.542969 184.519531 202.597656 183.972656 C 202.652344 183.421875 202.730469 182.875 202.839844 182.332031 C 202.945312 181.789062 203.082031 181.253906 203.242188 180.726562 C 203.402344 180.199219 203.589844 179.679688 203.800781 179.167969 C 204.011719 178.65625 204.246094 178.15625 204.507812 177.671875 C 204.769531 177.183594 205.050781 176.710938 205.359375 176.25 C 205.667969 175.789062 205.996094 175.347656 206.347656 174.917969 C 206.695312 174.492188 207.066406 174.082031 207.457031 173.691406 C 207.847656 173.300781 208.257812 172.929688 208.683594 172.582031 C 209.113281 172.230469 209.554688 171.902344 210.015625 171.59375 C 210.476562 171.285156 210.949219 171.003906 211.4375 170.742188 C 211.921875 170.480469 212.421875 170.246094 212.933594 170.035156 C 213.445312 169.824219 213.964844 169.636719 214.492188 169.476562 C 215.023438 169.316406 215.558594 169.183594 216.097656 169.074219 C 216.640625 168.964844 217.1875 168.886719 217.738281 168.832031 C 218.289062 168.777344 218.839844 168.75 219.390625 168.75 L 624.4375 168.75 C 625.050781 168.75 625.664062 168.78125 626.273438 168.847656 C 626.882812 168.914062 627.488281 169.015625 628.089844 169.144531 C 628.6875 169.277344 629.277344 169.441406 629.859375 169.640625 C 630.441406 169.835938 631.011719 170.0625 631.566406 170.324219 C 632.125 170.582031 632.664062 170.871094 633.191406 171.1875 C 633.714844 171.507812 634.222656 171.851562 634.710938 172.226562 C 635.199219 172.597656 635.664062 172.996094 636.105469 173.421875 C 636.550781 173.84375 636.972656 174.292969 637.367188 174.761719 C 637.761719 175.230469 638.128906 175.722656 638.472656 176.230469 C 638.8125 176.742188 639.125 177.269531 639.410156 177.8125 C 639.695312 178.355469 639.949219 178.914062 640.171875 179.488281 C 640.394531 180.058594 640.585938 180.640625 640.746094 181.234375 C 640.90625 181.824219 641.035156 182.425781 641.128906 183.03125 C 641.222656 183.640625 641.285156 184.25 641.3125 184.863281 C 641.339844 185.476562 641.332031 186.089844 641.292969 186.703125 C 641.253906 187.3125 641.183594 187.921875 641.078125 188.527344 L 573.570312 576.652344 C 573.316406 578.101562 572.882812 579.488281 572.265625 580.824219 C 571.648438 582.15625 570.871094 583.390625 569.933594 584.519531 C 568.996094 585.652344 567.925781 586.640625 566.730469 587.492188 C 565.53125 588.34375 564.246094 589.027344 562.871094 589.546875 L 427.855469 640.171875 C 425.941406 640.890625 423.960938 641.25 421.914062 641.25 Z M 421.914062 641.25 " fill-opacity="1" fill-rule="nonzero"/><path fill="#fafafa" d="M 590.683594 371.25 L 236.269531 371.25 C 235.714844 371.25 235.164062 371.222656 234.613281 371.167969 C 234.066406 371.113281 233.519531 371.035156 232.976562 370.925781 C 232.433594 370.816406 231.898438 370.683594 231.371094 370.523438 C 230.839844 370.363281 230.320312 370.175781 229.808594 369.964844 C 229.300781 369.753906 228.800781 369.519531 228.3125 369.257812 C 227.824219 368.996094 227.351562 368.714844 226.890625 368.40625 C 226.433594 368.097656 225.988281 367.769531 225.5625 367.417969 C 225.136719 367.070312 224.726562 366.699219 224.335938 366.308594 C 223.945312 365.917969 223.574219 365.507812 223.222656 365.082031 C 222.871094 364.652344 222.542969 364.210938 222.234375 363.75 C 221.929688 363.289062 221.644531 362.816406 221.386719 362.328125 C 221.125 361.84375 220.886719 361.34375 220.675781 360.832031 C 220.464844 360.320312 220.277344 359.800781 220.117188 359.273438 C 219.957031 358.746094 219.824219 358.210938 219.714844 357.667969 C 219.609375 357.125 219.527344 356.578125 219.472656 356.027344 C 219.417969 355.480469 219.390625 354.925781 219.390625 354.375 C 219.390625 353.824219 219.417969 353.269531 219.472656 352.722656 C 219.527344 352.171875 219.609375 351.625 219.714844 351.082031 C 219.824219 350.539062 219.957031 350.003906 220.117188 349.476562 C 220.277344 348.949219 220.464844 348.429688 220.675781 347.917969 C 220.886719 347.40625 221.125 346.90625 221.386719 346.421875 C 221.644531 345.933594 221.929688 345.460938 222.234375 345 C 222.542969 344.539062 222.871094 344.097656 223.222656 343.667969 C 223.574219 343.242188 223.945312 342.832031 224.335938 342.441406 C 224.726562 342.050781 225.136719 341.679688 225.5625 341.332031 C 225.988281 340.980469 226.433594 340.652344 226.890625 340.34375 C 227.351562 340.035156 227.824219 339.753906 228.3125 339.492188 C 228.800781 339.230469 229.300781 338.996094 229.808594 338.785156 C 230.320312 338.574219 230.839844 338.386719 231.371094 338.226562 C 231.898438 338.066406 232.433594 337.933594 232.976562 337.824219 C 233.519531 337.714844 234.066406 337.636719 234.613281 337.582031 C 235.164062 337.527344 235.714844 337.5 236.269531 337.5 L 590.683594 337.5 C 591.234375 337.5 591.789062 337.527344 592.335938 337.582031 C 592.886719 337.636719 593.433594 337.714844 593.976562 337.824219 C 594.515625 337.933594 595.054688 338.066406 595.582031 338.226562 C 596.109375 338.386719 596.628906 338.574219 597.140625 338.785156 C 597.652344 338.996094 598.152344 339.230469 598.636719 339.492188 C 599.125 339.753906 599.601562 340.035156 600.058594 340.34375 C 600.519531 340.652344 600.960938 340.980469 601.390625 341.332031 C 601.816406 341.679688 602.226562 342.050781 602.617188 342.441406 C 603.007812 342.832031 603.378906 343.242188 603.730469 343.667969 C 604.078125 344.097656 604.410156 344.539062 604.714844 345 C 605.023438 345.460938 605.304688 345.933594 605.566406 346.421875 C 605.828125 346.90625 606.0625 347.40625 606.273438 347.917969 C 606.488281 348.429688 606.671875 348.949219 606.832031 349.476562 C 606.992188 350.003906 607.128906 350.539062 607.234375 351.082031 C 607.34375 351.625 607.425781 352.171875 607.476562 352.722656 C 607.53125 353.269531 607.558594 353.824219 607.558594 354.375 C 607.558594 354.925781 607.53125 355.480469 607.476562 356.027344 C 607.425781 356.578125 607.34375 357.125 607.234375 357.667969 C 607.128906 358.210938 606.992188 358.746094 606.832031 359.273438 C 606.671875 359.800781 606.488281 360.320312 606.273438 360.832031 C 606.0625 361.34375 605.828125 361.84375 605.566406 362.328125 C 605.304688 362.816406 605.023438 363.289062 604.714844 363.75 C 604.410156 364.210938 604.078125 364.652344 603.730469 365.082031 C 603.378906 365.507812 603.007812 365.917969 602.617188 366.308594 C 602.226562 366.699219 601.816406 367.070312 601.390625 367.417969 C 600.960938 367.769531 600.519531 368.097656 600.058594 368.40625 C 599.601562 368.714844 599.125 368.996094 598.636719 369.257812 C 598.152344 369.519531 597.652344 369.753906 597.140625 369.964844 C 596.628906 370.175781 596.109375 370.363281 595.582031 370.523438 C 595.054688 370.683594 594.515625 370.816406 593.976562 370.925781 C 593.433594 371.035156 592.886719 371.113281 592.335938 371.167969 C 591.789062 371.222656 591.234375 371.25 590.683594 371.25 Z M 590.683594 371.25 " fill-opacity="1" fill-rule="nonzero"/></svg>