<svg xmlns="http://www.w3.org/2000/svg" xmlns:xlink="http://www.w3.org/1999/xlink" width="1080" zoomAndPan="magnify" viewBox="0 0 810 809.999993" height="1080" preserveAspectRatio="xMidYMid meet" version="1.0"><defs><clipPath id="af22f8b723"><path d="M 192 4.609375 L 599 4.609375 L 599 805.609375 L 192 805.609375 Z M 192 4.609375 " clip-rule="nonzero"/></clipPath></defs><path fill="#4e7896" d="M 334.394531 429.394531 C 334.394531 429.394531 313.300781 442.238281 349.066406 445.90625 C 392.167969 451.410156 415.09375 450.496094 462.78125 441.320312 C 462.78125 441.320312 475.617188 449.578125 493.042969 456 C 385.75 501.871094 250.019531 453.246094 334.398438 429.394531 Z M 320.640625 369.757812 C 320.640625 369.757812 297.714844 387.191406 333.476562 390.863281 C 380.25 395.449219 416.929688 396.367188 480.203125 383.523438 C 480.203125 383.523438 488.457031 392.695312 502.214844 397.285156 C 372.910156 435.816406 228.011719 400.953125 320.636719 369.761719 Z M 573.75 474.339844 C 573.75 474.339844 589.335938 487.183594 556.324219 497.273438 C 494.878906 515.625 298.640625 521.128906 243.609375 497.273438 C 224.351562 489.019531 261.03125 477.089844 272.953125 475.253906 C 284.875 472.503906 291.292969 472.503906 291.292969 472.503906 C 270.203125 457.824219 150.984375 502.78125 230.769531 515.625 C 449.941406 551.402344 630.597656 500.027344 573.746094 474.335938 Z M 344.488281 307.363281 C 344.488281 307.363281 244.53125 331.21875 308.726562 339.472656 C 336.238281 343.144531 390.339844 342.226562 440.78125 338.554688 C 482.046875 334.886719 523.3125 327.542969 523.3125 327.542969 C 523.3125 327.542969 508.640625 333.964844 498.554688 340.386719 C 396.761719 366.992188 201.4375 355.066406 257.367188 327.542969 C 305.054688 304.609375 344.484375 307.359375 344.484375 307.359375 Z M 523.3125 407.363281 C 626.019531 354.152344 578.332031 302.777344 545.320312 309.199219 C 537.066406 311.03125 533.398438 312.867188 533.398438 312.867188 C 533.398438 312.867188 536.148438 307.363281 542.566406 305.527344 C 607.675781 282.589844 659.03125 374.332031 521.476562 410.117188 C 521.476562 410.117188 522.394531 409.195312 523.3125 407.363281 Z M 354.574219 552.320312 C 453.613281 558.742188 604.910156 548.652344 608.601562 501.859375 C 608.601562 501.859375 601.265625 520.210938 526.984375 533.972656 C 442.617188 549.570312 338.078125 547.734375 276.648438 537.640625 C 276.648438 537.640625 289.488281 548.652344 354.597656 552.320312 Z M 354.574219 552.320312 " fill-opacity="1" fill-rule="nonzero"/><g clip-path="url(#af22f8b723)"><path fill="#f58219" d="M 460.945312 4.609375 C 460.945312 4.609375 517.800781 62.40625 406.839844 149.5625 C 317.886719 220.207031 386.664062 260.578125 406.839844 306.445312 C 354.566406 259.65625 316.96875 218.371094 342.644531 179.839844 C 380.25 122.957031 483.882812 95.453125 460.953125 4.609375 Z M 431.617188 267.921875 C 458.210938 298.195312 424.28125 325.71875 424.28125 325.71875 C 424.28125 325.71875 492.140625 290.859375 460.960938 247.738281 C 432.53125 206.453125 410.523438 186.269531 529.738281 117.476562 C 529.738281 117.476562 341.746094 164.269531 431.613281 267.941406 Z M 363.742188 760.574219 L 363.742188 670.664062 C 363.742188 647.726562 350.90625 632.132812 318.808594 632.132812 C 300.464844 632.132812 284.878906 636.71875 271.121094 642.207031 L 275.707031 658.71875 C 285.777344 655.050781 298.632812 651.378906 312.390625 651.378906 C 329.8125 651.378906 338.066406 658.71875 338.066406 673.398438 L 338.066406 685.324219 L 328.898438 685.324219 C 284.878906 685.324219 264.703125 701.839844 264.703125 728.445312 C 264.703125 750.464844 278.460938 763.308594 303.222656 763.308594 C 318.808594 763.308594 330.734375 755.96875 341.738281 746.792969 L 343.570312 760.554688 L 363.746094 760.554688 Z M 338.066406 731.21875 C 328.894531 739.472656 318.808594 744.0625 309.636719 744.0625 C 297.714844 744.0625 290.378906 736.71875 290.378906 723.875 C 290.378906 711.03125 297.714844 701.859375 327.058594 701.859375 L 338.066406 701.859375 Z M 449.945312 760.574219 L 417.851562 760.574219 L 379.335938 634.882812 L 406.847656 634.882812 L 430.691406 711.949219 L 436.191406 734.882812 C 448.113281 701.855469 457.289062 667.910156 460.953125 634.882812 L 488.464844 634.882812 C 481.128906 676.171875 468.289062 721.125 449.953125 760.574219 Z M 598.503906 760.574219 L 598.503906 670.664062 C 598.503906 647.726562 585.667969 632.132812 553.570312 632.132812 C 535.230469 632.132812 519.640625 636.71875 505.882812 642.207031 L 509.550781 658.71875 C 520.558594 655.050781 533.394531 651.378906 547.152344 651.378906 C 564.578125 651.378906 572.828125 658.71875 572.828125 673.398438 L 572.828125 685.324219 L 563.660156 685.324219 C 519.640625 685.324219 499.464844 701.839844 499.464844 728.445312 C 499.464844 750.464844 512.304688 763.308594 537.0625 763.308594 C 553.570312 763.308594 565.492188 755.96875 576.496094 746.792969 L 578.328125 760.554688 L 598.503906 760.554688 Z M 572.828125 731.21875 C 563.660156 739.472656 553.570312 744.0625 544.398438 744.0625 C 532.476562 744.0625 525.144531 736.71875 525.144531 723.875 C 525.144531 711.03125 532.480469 701.859375 561.824219 701.859375 L 572.828125 701.859375 Z M 236.28125 781.675781 C 228.945312 792.6875 217.9375 800.941406 204.183594 805.53125 L 192.253906 790.859375 C 201.425781 785.355469 210.597656 777.097656 214.265625 769.757812 C 217.933594 763.335938 218.851562 754.160156 218.851562 733.058594 L 218.851562 589.9375 L 246.363281 589.9375 L 246.363281 731.226562 C 246.363281 759.664062 243.613281 770.675781 236.292969 781.6875 Z M 236.28125 781.675781 " fill-opacity="1" fill-rule="nonzero"/></g></svg>