<svg xmlns="http://www.w3.org/2000/svg" xmlns:xlink="http://www.w3.org/1999/xlink" width="1080" zoomAndPan="magnify" viewBox="0 0 810 809.999993" height="1080" preserveAspectRatio="xMidYMid meet" version="1.0"><defs><clipPath id="84c6b73294"><path d="M 12 13.78125 L 810 13.78125 L 810 810 L 12 810 Z M 12 13.78125 " clip-rule="nonzero"/></clipPath><clipPath id="14c2d14949"><path d="M 12 13.78125 L 418 13.78125 L 418 810 L 12 810 Z M 12 13.78125 " clip-rule="nonzero"/></clipPath></defs><g clip-path="url(#84c6b73294)"><path fill="#ffc44d" d="M 40.859375 11.898438 C 32.753906 11.898438 25.039062 15.378906 19.675781 21.453125 C 14.3125 27.527344 11.816406 35.617188 12.820312 43.65625 L 88.167969 646.449219 C 89.339844 655.824219 95.121094 663.992188 103.570312 668.214844 L 404.964844 818.914062 C 412.917969 822.890625 422.285156 822.890625 430.238281 818.914062 L 731.632812 668.214844 C 740.082031 663.992188 745.863281 655.824219 747.035156 646.449219 L 822.382812 43.65625 C 823.390625 35.617188 820.890625 27.527344 815.53125 21.453125 C 810.164062 15.378906 802.449219 11.898438 794.347656 11.898438 Z M 40.859375 11.898438 " fill-opacity="1" fill-rule="nonzero"/></g><g clip-path="url(#14c2d14949)"><path fill="#e5b045" d="M 417.601562 11.898438 L 417.601562 821.898438 C 413.273438 821.898438 408.945312 820.902344 404.964844 818.914062 L 103.570312 668.214844 C 95.121094 663.992188 89.339844 655.824219 88.167969 646.449219 L 12.820312 43.65625 C 11.816406 35.617188 14.3125 27.527344 19.675781 21.453125 C 25.039062 15.378906 32.753906 11.898438 40.859375 11.898438 Z M 417.601562 11.898438 " fill-opacity="1" fill-rule="evenodd"/></g><path fill="#eceff1" d="M 170.691406 134.121094 C 176.042969 128.261719 183.617188 124.921875 191.554688 124.921875 L 643.648438 124.921875 C 659.253906 124.921875 671.90625 137.570312 671.90625 153.175781 C 671.90625 168.78125 659.253906 181.433594 643.648438 181.433594 L 222.496094 181.433594 L 236.195312 332.128906 L 643.648438 332.128906 C 652.027344 332.128906 659.972656 335.847656 665.339844 342.277344 C 670.710938 348.714844 672.949219 357.199219 671.449219 365.441406 L 633.773438 572.652344 C 632.320312 580.652344 627.484375 587.636719 620.511719 591.824219 L 432.140625 704.847656 C 423.191406 710.214844 412.011719 710.214844 403.0625 704.847656 L 214.691406 591.824219 C 206.960938 587.183594 201.90625 579.132812 201.089844 570.152344 L 163.414062 155.734375 C 162.699219 147.828125 165.335938 139.984375 170.691406 134.121094 Z M 241.335938 388.640625 L 256.070312 550.746094 L 417.601562 647.667969 L 580.464844 549.949219 L 609.789062 388.640625 Z M 241.335938 388.640625 " fill-opacity="1" fill-rule="evenodd"/><path fill="#cfd8dc" d="M 417.601562 181.433594 L 222.496094 181.433594 L 236.195312 332.128906 L 417.601562 332.128906 L 417.601562 388.640625 L 241.335938 388.640625 L 256.070312 550.746094 L 417.601562 647.667969 L 417.601562 708.875 C 412.570312 708.875 407.539062 707.53125 403.0625 704.847656 L 214.691406 591.824219 C 206.960938 587.183594 201.90625 579.132812 201.089844 570.152344 L 182.253906 362.945312 L 163.414062 155.734375 C 162.699219 147.828125 165.335938 139.984375 170.691406 134.121094 C 176.042969 128.261719 183.617188 124.921875 191.554688 124.921875 L 417.601562 124.921875 Z M 417.601562 181.433594 " fill-opacity="1" fill-rule="evenodd"/></svg>