<svg xmlns="http://www.w3.org/2000/svg" xmlns:xlink="http://www.w3.org/1999/xlink" width="1080" zoomAndPan="magnify" viewBox="0 0 810 809.999993" height="1080" preserveAspectRatio="xMidYMid meet" version="1.0"><path fill="#000000" d="M 739.566406 499.289062 C 739.566406 499.332031 739.546875 499.355469 739.5 499.355469 C 739.457031 499.355469 739.433594 499.332031 739.433594 499.289062 C 739.433594 499.242188 739.457031 499.222656 739.5 499.222656 C 739.546875 499.222656 739.566406 499.242188 739.566406 499.289062 Z M 739.566406 499.289062 " fill-opacity="1" fill-rule="nonzero"/><path fill="#32648d" d="M 640.402344 492.929688 L 640.46875 492.996094 L 640.46875 493.027344 L 640.367188 493.0625 C 635.515625 494.835938 631.5 495.574219 628.121094 497.078125 C 624.675781 498.453125 621.898438 500.960938 620.261719 504.175781 L 620.226562 504.242188 C 618.152344 508.089844 616.347656 514.917969 616.882812 526.535156 C 618.253906 527.539062 619.925781 528.308594 621.632812 528.84375 L 621.765625 528.875 C 627.421875 530.617188 636.886719 531.753906 647.460938 531.585938 C 668.539062 531.351562 694.5 526.367188 708.285156 519.871094 C 720.164062 514.214844 730.332031 507.386719 739.402344 499.289062 C 693.363281 508.925781 667.367188 506.351562 651.410156 499.691406 C 647.261719 497.882812 643.613281 495.640625 640.402344 492.929688 Z M 640.402344 492.929688 " fill-opacity="1" fill-rule="nonzero"/><path fill="#32648d" d="M 593.195312 138.9375 L 593.394531 139.238281 L 593.628906 139.507812 Z M 593.195312 138.9375 " fill-opacity="1" fill-rule="nonzero"/><path fill="#32648d" d="M 417.109375 645.957031 C 417.078125 645.121094 417.109375 644.25 417.078125 643.414062 C 417.078125 643.078125 417.042969 642.84375 417.042969 642.511719 Z M 417.109375 645.957031 " fill-opacity="1" fill-rule="nonzero"/><path fill="#32648d" d="M 381.8125 498.25 C 379.871094 497.28125 377.597656 496.578125 375.15625 496.242188 L 375.054688 496.242188 L 375.054688 496.175781 L 374.351562 496.175781 C 372.613281 496.34375 370.070312 496.945312 365.117188 502.46875 C 353.609375 515.519531 349.59375 523.722656 340.09375 531.386719 C 330.589844 539.019531 318.277344 543.101562 293.652344 548.222656 C 285.859375 549.828125 281.375 551.601562 278.429688 553.042969 C 279.402344 553.847656 279.300781 554.046875 280.738281 554.816406 C 284.351562 556.824219 288.96875 558.597656 292.71875 559.570312 C 303.289062 562.246094 320.6875 565.359375 338.820312 562.246094 C 356.953125 559.101562 375.824219 550.296875 391.917969 527.4375 C 394.695312 523.488281 394.996094 517.664062 392.71875 511.40625 C 390.445312 505.144531 385.359375 499.757812 381.8125 498.25 Z M 381.8125 498.25 " fill-opacity="1" fill-rule="nonzero"/><path fill="#32648d" d="M 516.910156 50.273438 L 515.003906 50.640625 C 515.640625 50.507812 516.34375 50.441406 516.980469 50.308594 C 516.945312 50.308594 516.945312 50.273438 516.910156 50.273438 Z M 516.910156 50.273438 " fill-opacity="1" fill-rule="nonzero"/><path fill="#32648d" d="M 609.988281 230.949219 C 587.539062 231.25 574.960938 237.109375 568.335938 244.773438 C 558.96875 255.652344 558.097656 274.730469 563.917969 298.226562 C 569.707031 321.757812 581.652344 348.066406 592.894531 369.921875 C 598.511719 380.867188 603.96875 390.707031 608.351562 398.707031 C 612.765625 406.742188 616.011719 412.429688 617.984375 417.285156 C 619.792969 421.769531 621.832031 425.71875 623.875 429.402344 C 632.574219 410.824219 634.113281 392.582031 633.242188 373.570312 C 632.105469 350.039062 626.683594 325.976562 627.488281 301.609375 C 628.390625 273.125 633.945312 254.582031 634.414062 232.558594 C 627.085938 231.554688 618.585938 230.949219 609.988281 230.949219 Z M 614.136719 247.886719 L 614.105469 248.15625 C 614.105469 248.253906 614.105469 248.355469 614.105469 248.488281 C 614.105469 250.027344 613.667969 251.5 612.898438 252.707031 L 612.933594 252.671875 C 611.894531 254.582031 610.691406 256.253906 609.285156 257.695312 C 606.007812 261.34375 601.625 263.886719 596.671875 264.757812 L 596.539062 264.789062 C 595.835938 264.890625 595.035156 264.921875 594.199219 264.921875 C 589.980469 264.921875 586.101562 263.585938 582.921875 261.308594 L 582.988281 261.34375 C 581.351562 260.203125 579.910156 258.898438 578.742188 257.425781 L 578.707031 257.390625 C 577.667969 256.253906 576.933594 254.78125 576.632812 253.207031 L 576.632812 253.140625 C 576.632812 252.972656 576.597656 252.808594 576.597656 252.640625 C 576.597656 251.199219 577.132812 249.863281 578.039062 248.859375 C 579.109375 247.617188 580.378906 246.613281 581.851562 245.878906 L 581.917969 245.84375 C 585.097656 244.039062 589.378906 242.699219 594.230469 241.960938 C 596.039062 241.695312 597.84375 241.5625 599.515625 241.527344 L 599.515625 241.628906 L 601.15625 241.628906 C 603.332031 241.695312 605.339844 241.929688 607.113281 242.363281 C 608.886719 242.765625 610.425781 243.367188 611.660156 244.203125 C 612.898438 245.042969 613.835938 246.3125 614.136719 247.886719 Z M 614.136719 247.886719 " fill-opacity="1" fill-rule="nonzero"/><path fill="#32648d" d="M 241.796875 378.457031 C 241.796875 372.433594 242.265625 366.542969 243.132812 360.75 L 243.066406 361.386719 C 246.480469 336.652344 246.949219 313.523438 246.546875 295.25 C 246.144531 277.441406 244.875 265.59375 244.875 258.195312 C 244.875 258.09375 244.875 257.996094 244.875 257.894531 C 244.875 257.792969 244.875 257.660156 244.875 257.558594 L 244.875 257.390625 L 244.839844 257.191406 L 244.839844 257.160156 C 244.839844 257.089844 244.839844 257.058594 244.839844 256.992188 C 244.839844 217.359375 251.800781 179.371094 264.414062 144.125 C 273.679688 119.222656 287.464844 93.953125 308.105469 73.46875 C 287.800781 66.707031 251.800781 56.398438 212.789062 54.457031 C 209.042969 54.257812 204.660156 54.121094 200.277344 54.121094 L 200.242188 54.121094 L 200.242188 54.15625 C 196.058594 54.15625 191.84375 54.289062 187.695312 54.523438 C 154.304688 56.464844 122.722656 66.273438 100.171875 90.503906 C 77.554688 114.738281 62.667969 154.46875 65.914062 220.238281 C 66.546875 232.691406 71.902344 267.566406 81.070312 309.003906 C 90.269531 350.441406 103.21875 399.210938 118.808594 442.285156 C 134.433594 485.363281 153.367188 522.851562 171.367188 540.589844 C 180.4375 549.460938 188.296875 553.042969 195.425781 552.742188 C 202.585938 552.40625 211.214844 548.222656 221.753906 535.402344 C 242.464844 510.167969 262.035156 487.839844 282.246094 466.152344 L 281.574219 466.855469 C 257.152344 445.265625 241.796875 413.703125 241.796875 378.457031 Z M 241.796875 378.457031 " fill-opacity="1" fill-rule="nonzero"/><path fill="#32648d" d="M 419.753906 52.484375 L 419.753906 52.414062 C 380.675781 52.515625 352.671875 64.464844 331.394531 82.371094 C 309.480469 100.882812 294.792969 126.21875 285.121094 152.160156 C 273.648438 182.953125 269.730469 212.742188 268.160156 232.957031 L 268.59375 232.691406 C 280.40625 225.996094 295.894531 219.300781 312.488281 215.417969 C 329.085938 211.539062 346.949219 210.367188 363.144531 216.726562 C 379.335938 223.085938 392.71875 238.046875 397.570312 260.738281 C 420.824219 369.753906 390.34375 410.289062 379.101562 440.882812 C 375.523438 449.683594 371.808594 460.996094 368.699219 472.542969 L 368.164062 474.789062 C 369.566406 474.453125 371.007812 474.050781 372.410156 473.917969 C 380.339844 473.246094 386.5625 475.925781 390.242188 477.53125 C 401.550781 482.285156 409.316406 492.257812 413.496094 503.640625 C 414.601562 506.617188 415.371094 509.832031 415.839844 513.144531 C 416.273438 514.28125 416.507812 515.621094 416.507812 516.996094 C 416.507812 517.128906 416.507812 517.261719 416.507812 517.394531 C 415.972656 534.132812 415.636719 553.777344 415.636719 573.527344 C 415.636719 596.921875 416.105469 620.21875 416.976562 643.414062 C 417.746094 661.019531 418.851562 676.617188 420.222656 688.902344 C 421.660156 701.417969 423.667969 710.890625 424.9375 714.105469 C 429.15625 724.816406 435.34375 738.839844 446.519531 748.378906 C 457.691406 757.886719 473.71875 764.246094 502.992188 757.886719 C 528.386719 752.363281 544.046875 744.699219 554.515625 733.6875 C 564.988281 722.675781 571.210938 707.34375 575.195312 683.882812 C 581.183594 648.738281 593.195312 546.816406 594.664062 527.636719 C 593.996094 513.179688 596.105469 502.066406 600.6875 493.597656 C 605.371094 484.894531 612.664062 479.574219 618.921875 476.695312 C 622.066406 475.253906 625.011719 474.285156 627.421875 473.582031 C 624.476562 469.332031 621.832031 465.785156 619.089844 462.335938 L 619.390625 462.703125 C 610.726562 452.128906 603.332031 439.976562 597.742188 426.890625 L 597.375 425.917969 C 593.996094 418.925781 591.152344 413.636719 588.175781 408.449219 L 588.878906 409.753906 C 584.496094 401.71875 578.941406 391.679688 573.121094 380.398438 C 561.476562 357.804688 548.828125 330.425781 542.238281 303.75 C 535.679688 277.105469 534.746094 249.527344 551.539062 230.082031 C 566.394531 212.808594 592.523438 205.644531 631.703125 209.664062 C 630.566406 206.148438 629.863281 203.234375 627.886719 198.550781 C 618.351562 176.125 606.878906 156.777344 593.261719 139.238281 C 560.039062 96.328125 506.339844 53.855469 423.433594 52.484375 Z M 419.753906 52.484375 " fill-opacity="1" fill-rule="nonzero"/><path fill="#32648d" d="M 267.691406 260.070312 L 267.757812 260.035156 L 267.859375 259.9375 Z M 267.691406 260.070312 " fill-opacity="1" fill-rule="nonzero"/><path fill="#32648d" d="M 316.871094 237.410156 L 317.207031 237.375 L 317.476562 237.277344 Z M 316.871094 237.410156 " fill-opacity="1" fill-rule="nonzero"/><path fill="#32648d" d="M 358.324219 433.015625 C 371.742188 396.398438 398.140625 369.6875 375.925781 265.460938 C 372.277344 248.390625 365.085938 241.492188 355.179688 237.609375 C 350.363281 235.835938 344.777344 234.800781 338.921875 234.800781 C 338.554688 234.800781 338.152344 234.800781 337.785156 234.800781 L 337.851562 234.800781 C 330.722656 234.867188 323.832031 235.769531 317.207031 237.375 C 303.15625 240.925781 290.777344 245.945312 279.265625 252.371094 C 274.953125 254.75 271.238281 257.226562 267.757812 260.003906 L 267.121094 260.605469 C 267.324219 265.492188 268.261719 277.339844 268.660156 294.78125 C 269.0625 313.859375 268.59375 338.191406 264.949219 364.535156 C 257.050781 421.769531 298.070312 469.164062 346.25 469.230469 C 349.09375 457.484375 353.710938 445.566406 358.324219 433.015625 Z M 329.855469 266.699219 C 328.28125 265.089844 327.011719 263.285156 325.972656 261.308594 L 325.90625 261.175781 C 325.035156 259.769531 324.535156 258.0625 324.535156 256.222656 C 324.535156 255.886719 324.566406 255.550781 324.601562 255.21875 L 324.601562 255.25 C 325.101562 251.636719 328.046875 249.761719 330.890625 248.722656 C 333.535156 247.851562 336.480469 247.351562 339.625 247.351562 C 340.09375 247.351562 340.558594 247.351562 341.097656 247.382812 L 341.0625 247.25 C 342.800781 247.25 344.675781 247.417969 346.550781 247.6875 C 351.601562 248.390625 356.117188 249.761719 359.53125 251.769531 C 361.238281 252.707031 362.707031 253.878906 363.878906 255.285156 L 363.914062 255.316406 C 365.050781 256.621094 365.71875 258.328125 365.71875 260.238281 C 365.71875 260.503906 365.71875 260.773438 365.6875 261.039062 L 365.6875 261.007812 C 365.351562 263.015625 364.449219 264.757812 363.210938 266.160156 C 361.839844 267.835938 360.300781 269.273438 358.558594 270.480469 L 358.492188 270.511719 C 355.113281 272.988281 350.863281 274.460938 346.28125 274.460938 C 345.378906 274.460938 344.476562 274.394531 343.605469 274.296875 L 343.707031 274.296875 C 338.152344 273.359375 333.402344 270.613281 329.855469 266.699219 Z M 329.855469 266.699219 " fill-opacity="1" fill-rule="nonzero"/><path fill="#32648d" d="M 278.597656 252.707031 C 278.832031 252.574219 279.066406 252.503906 279.265625 252.371094 C 279.300781 252.371094 279.335938 252.339844 279.367188 252.304688 Z M 278.597656 252.707031 " fill-opacity="1" fill-rule="nonzero"/><path fill="#32648d" d="M 611.09375 125.582031 C 625.578125 144.160156 638.125 165.3125 647.796875 188.007812 L 648.5 189.847656 C 652.144531 198.683594 654.585938 206.148438 655.957031 211.9375 C 656.660156 214.851562 657.128906 217.292969 657.296875 219.839844 C 657.363281 221.109375 657.429688 222.414062 656.894531 224.65625 C 656.894531 224.757812 656.730469 224.992188 656.695312 225.09375 C 657.699219 254.414062 650.503906 274.296875 649.667969 302.277344 C 649 322.5625 654.117188 346.390625 655.390625 372.398438 C 656.59375 396.832031 653.683594 423.675781 637.992188 450.019531 C 639.332031 451.625 640.5 453.230469 641.773438 454.839844 C 683.226562 388.734375 713.101562 315.597656 729.027344 253.242188 C 737.558594 219.671875 742.078125 189.246094 742.480469 165.144531 C 742.8125 141.046875 738.363281 123.574219 732.742188 116.277344 C 688.378906 58.84375 628.390625 44.214844 578.070312 43.8125 L 578.070312 43.847656 L 573.253906 43.847656 C 553.847656 44.148438 535.113281 46.390625 517.011719 50.308594 C 558.097656 68.78125 589.210938 97.234375 611.09375 125.582031 Z M 611.09375 125.582031 " fill-opacity="1" fill-rule="nonzero"/><path fill="#000000" d="M 425.273438 8.636719 L 424.9375 8.636719 C 385.996094 7.964844 352.570312 17.539062 325.570312 33.472656 C 299.007812 24.132812 243.902344 8.03125 185.789062 11.246094 C 145.339844 13.488281 101.175781 25.941406 68.457031 60.917969 C 35.835938 95.894531 18.605469 150.015625 22.21875 223.652344 C 23.222656 243.96875 28.941406 277.105469 38.410156 320.015625 C 47.914062 362.925781 61.230469 413.167969 77.855469 458.988281 C 94.484375 504.84375 112.683594 546.011719 141.15625 573.996094 C 155.375 588.019531 174.949219 599.800781 198 598.832031 C 214.195312 598.160156 228.8125 590.964844 241.460938 580.355469 C 247.617188 588.554688 254.175781 592.136719 260.164062 595.449219 C 267.691406 599.632812 275.019531 602.480469 282.613281 604.355469 C 296.261719 607.800781 319.617188 612.421875 346.984375 607.699219 C 356.320312 606.128906 366.121094 603.046875 375.890625 598.664062 C 376.257812 609.710938 376.695312 620.519531 377.09375 631.464844 C 378.46875 666.140625 379.304688 698.171875 389.574219 726.253906 C 391.214844 730.839844 395.765625 754.472656 413.597656 775.324219 C 431.429688 796.210938 466.425781 809.230469 506.238281 800.59375 C 534.34375 794.503906 570.042969 783.523438 593.796875 749.316406 C 617.25 715.511719 627.820312 667.011719 629.929688 588.355469 C 630.464844 584.105469 631.101562 580.488281 631.734375 577.109375 L 637.324219 577.609375 L 637.992188 577.609375 C 667.96875 578.984375 700.492188 574.664062 727.65625 561.878906 C 751.710938 550.597656 769.914062 539.183594 783.195312 518.933594 C 786.507812 513.914062 790.121094 507.855469 791.125 497.414062 C 792.128906 486.96875 786.207031 470.636719 776.371094 463.105469 C 756.699219 447.976562 744.351562 453.734375 731.101562 456.511719 C 719.292969 459.289062 705.640625 461.03125 691.65625 461.398438 L 691.390625 461.398438 C 729.597656 396.230469 757 327.011719 772.625 265.761719 C 781.890625 229.613281 787.078125 196.273438 787.476562 167.121094 C 787.914062 137.96875 785.570312 112.160156 768.308594 89.835938 C 714.410156 20.082031 638.628906 0.804688 579.976562 0.132812 C 578.171875 0.101562 576.332031 0.0664062 574.523438 0.101562 L 574.523438 0 C 542.605469 0.269531 511.894531 5.085938 482.820312 13.691406 L 481.449219 14.160156 C 464.652344 11.011719 445.148438 9.003906 425.273438 8.636719 Z M 504.53125 29.957031 C 525.007812 24.902344 548.5625 21.855469 572.785156 21.554688 L 572.984375 21.554688 L 573.019531 21.421875 C 628.492188 20.886719 699.320312 36.652344 750.207031 102.488281 C 761.648438 117.28125 765.0625 138.90625 764.660156 165.546875 C 764.226562 192.15625 759.375 224.023438 750.476562 258.933594 C 733.210938 326.542969 700.625 405.367188 654.722656 476.09375 C 656.226562 477.195312 657.964844 478.167969 659.773438 478.902344 L 659.941406 478.972656 C 669.507812 482.988281 691.355469 486.433594 734.949219 477.363281 C 745.925781 475.019531 753.953125 473.449219 762.285156 479.875 C 766.03125 483.089844 768.375 487.839844 768.375 493.164062 C 768.375 493.496094 768.375 493.832031 768.339844 494.167969 L 768.339844 494.132812 C 767.839844 498.382812 766.332031 502.199219 764.023438 505.378906 C 755.59375 518.199219 738.964844 530.347656 717.6875 540.355469 C 698.816406 549.261719 671.75 553.914062 647.761719 554.179688 C 635.71875 554.3125 624.644531 553.378906 615.207031 550.398438 L 614.605469 550.164062 C 610.960938 585.644531 602.59375 655.699219 597.140625 687.664062 C 592.792969 713.4375 585.164062 733.921875 570.578125 749.25 C 556.023438 764.578125 535.445312 773.816406 507.746094 779.84375 C 473.453125 787.304688 448.425781 779.273438 432.300781 765.515625 C 416.207031 751.792969 408.847656 733.585938 404.394531 722.441406 C 401.351562 714.742188 399.777344 704.765625 398.238281 691.445312 C 396.699219 678.125 395.597656 661.824219 394.828125 643.449219 C 394.089844 624.769531 393.691406 602.8125 393.691406 580.757812 C 393.691406 573.492188 393.757812 566.261719 393.824219 559 C 380.007812 571.851562 362.542969 580.890625 343.136719 584.339844 L 342.535156 584.4375 C 319.75 588.355469 299.441406 584.503906 287.296875 581.425781 C 280.839844 579.785156 275.21875 577.476562 269.933594 574.597656 C 264.378906 571.585938 259.09375 568.136719 255.546875 561.410156 C 254.140625 558.832031 253.304688 555.71875 253.304688 552.441406 C 253.304688 551.132812 253.4375 549.828125 253.707031 548.625 C 254.910156 544.140625 257.421875 540.324219 260.867188 537.644531 L 260.898438 537.613281 C 267.457031 532.222656 276.089844 529.210938 289.171875 526.464844 C 312.925781 521.511719 321.222656 518.132812 326.273438 514.082031 C 330.558594 510.601562 335.441406 503.574219 344.007812 493.261719 C 343.972656 492.960938 343.941406 492.460938 343.90625 491.992188 L 343.90625 491.890625 C 327.714844 491.421875 312.625 487.039062 299.441406 479.640625 L 299.945312 479.910156 C 294.992188 485.195312 269.664062 512.308594 238.816406 549.929688 C 225.835938 565.660156 211.484375 574.699219 196.359375 575.335938 C 181.238281 575.96875 167.554688 568.273438 155.910156 556.859375 C 132.660156 533.996094 114.125 494.667969 97.964844 450.21875 C 81.839844 405.769531 68.722656 356.265625 59.386719 314.09375 C 50.019531 271.917969 44.535156 237.914062 43.730469 221.511719 C 40.25 151.824219 56.34375 104.863281 83.945312 75.242188 C 111.582031 45.621094 149.453125 34.410156 186.359375 32.265625 C 252.636719 28.417969 315.535156 51.8125 328.28125 56.832031 C 352.839844 39.964844 384.457031 29.453125 423.902344 30.125 C 443.773438 30.425781 462.878906 33.070312 481.148438 37.789062 L 479.472656 37.421875 L 480.144531 37.121094 C 486.53125 34.710938 494.695312 32.265625 503.0625 30.257812 Z M 504.53125 29.957031 " fill-opacity="1" fill-rule="nonzero"/></svg>