<svg xmlns="http://www.w3.org/2000/svg" xmlns:xlink="http://www.w3.org/1999/xlink" width="1080" zoomAndPan="magnify" viewBox="0 0 810 809.999993" height="1080" preserveAspectRatio="xMidYMid meet" version="1.0"><defs><clipPath id="a15965556f"><path d="M 11.78125 721 L 150 721 L 150 793 L 11.78125 793 Z M 11.78125 721 " clip-rule="nonzero"/></clipPath></defs><g clip-path="url(#a15965556f)"><path fill="#f15a24" d="M 149.292969 788.234375 L 11.78125 792.984375 L 82.273438 721.335938 L 149.296875 788.234375 Z M 149.292969 788.234375 " fill-opacity="1" fill-rule="nonzero"/></g><path fill="#f15a24" d="M 773.054688 432.886719 C 747.515625 631.992188 565.316406 772.691406 366.132812 747.101562 C 166.945312 721.574219 26.226562 539.449219 51.761719 340.34375 C 77.328125 141.234375 259.492188 0.542969 458.714844 26.101562 C 657.898438 51.644531 798.652344 233.789062 773.054688 432.886719 " fill-opacity="1" fill-rule="nonzero"/><path fill="#999999" d="M 505.121094 283.289062 C 529.015625 308.679688 505.453125 368.710938 505.453125 368.710938 C 505.453125 368.710938 482.128906 453.574219 348.699219 563.632812 L 323.761719 539.210938 L 493.191406 366.140625 L 496.449219 361.71875 C 500.964844 354.363281 504.675781 282.796875 505.121094 283.289062 " fill-opacity="1" fill-rule="nonzero"/><path stroke-linecap="round" transform="matrix(2.990308, 0, 0, 2.989105, 11.781822, 21.64726)" fill="none" stroke-linejoin="round" d="M 164.979439 87.531818 C 172.970099 96.026209 165.090474 116.109561 165.090474 116.109561 C 165.090474 116.109561 157.290535 144.500427 112.669812 181.320341 L 104.330369 173.150045 L 160.989987 115.249667 L 162.079444 113.770336 C 163.589531 111.309577 164.83052 87.367158 164.979439 87.531818 Z M 164.979439 87.531818 " stroke="#ffffff" stroke-width="1.918" stroke-opacity="1" stroke-miterlimit="4"/><path stroke-linecap="round" transform="matrix(2.990308, 0, 0, 2.989105, 11.781822, 21.64726)" fill-opacity="1" fill="#666666" fill-rule="nonzero" stroke-linejoin="round" d="M 92.099447 161.110227 L 164.860565 87.322726 C 168.560017 91.708445 169.33988 96.432633 168.270018 103.170644 C 167.550244 107.829491 159.49035 117.149797 159.49035 117.149797 L 104.330369 173.150045 " stroke="#ffffff" stroke-width="1.201" stroke-opacity="1" stroke-miterlimit="4"/><path fill="#ff931e" d="M 505.121094 283.441406 L 287.1875 503.222656 L 287.625 502.804688 L 287.546875 502.832031 L 233.472656 449.566406 C 346.21875 309.363281 419.121094 283.222656 419.121094 283.222656 C 419.121094 283.222656 466.609375 264.703125 500.457031 279.074219 C 503.058594 280.46875 504.195312 281.269531 505.121094 283.449219 " fill-opacity="1" fill-rule="nonzero"/><path stroke-linecap="round" transform="matrix(2.990308, 0, 0, 2.989105, 11.781822, 21.64726)" fill="none" stroke-linejoin="round" d="M 164.979439 87.582785 L 92.099447 161.110227 L 92.245753 160.970396 L 92.219627 160.979544 L 74.136464 143.15962 C 111.840309 96.254904 136.219856 87.509602 136.219856 87.509602 C 136.219856 87.509602 152.10059 81.313925 163.419712 86.12175 C 164.28971 86.588288 164.669845 86.856188 164.979439 87.585398 Z M 164.979439 87.582785 " stroke="#ffffff" stroke-width="1.918" stroke-opacity="1" stroke-miterlimit="4"/><path stroke-linecap="round" transform="matrix(2.990308, 0, 0, 2.989105, 11.781822, 21.64726)" fill-opacity="1" fill="#999999" fill-rule="nonzero" stroke-linejoin="round" d="M 112.669812 181.320341 C 95.276378 195.640577 73.023494 218.140256 42.776031 233.830048 L 49.503495 262.58944 L 20.988191 234.500452 L 92.096834 161.110227 " stroke="#ffffff" stroke-width="1.918" stroke-opacity="1" stroke-miterlimit="4"/><path stroke-linecap="round" transform="matrix(2.990308, 0, 0, 2.989105, 11.781822, 21.64726)" fill-opacity="1" fill="#f15a24" fill-rule="nonzero" stroke-linejoin="round" d="M 74.622409 143.400076 L 92.287555 161.000453 L 51.478626 169.839846 L 74.231825 143.079903 L 74.625022 143.400076 Z M 74.622409 143.400076 " stroke="#ffffff" stroke-width="1.918" stroke-opacity="1" stroke-miterlimit="4"/><path fill="#999999" d="M 484.308594 219.664062 C 479.136719 266.417969 512.808594 308.503906 559.578125 313.714844 C 606.316406 318.90625 648.449219 285.21875 653.679688 238.484375 C 658.882812 191.75 625.152344 149.621094 578.386719 144.425781 C 531.617188 139.257812 489.511719 172.902344 484.308594 219.664062 " fill-opacity="1" fill-rule="nonzero"/><path stroke-linecap="round" transform="matrix(2.990308, 0, 0, 2.989105, 11.781822, 21.64726)" fill="none" stroke-linejoin="round" d="M 158.019452 66.246183 C 156.289906 81.887623 167.550244 95.967401 183.190619 97.710712 C 198.820543 99.447488 212.910335 88.177392 214.659476 72.542487 C 216.399472 56.907581 205.11954 42.813428 189.480471 41.075345 C 173.840097 39.34641 159.759449 50.60213 158.019452 66.246183 Z M 158.019452 66.246183 " stroke="#ffffff" stroke-width="1.918" stroke-opacity="1" stroke-miterlimit="4"/><path fill="#666666" d="M 641.449219 276.132812 C 657.148438 253.179688 656.34375 218.839844 653.171875 208.667969 C 649.316406 196.210938 640.644531 175.953125 625.542969 165.421875 L 545.671875 238.972656 C 545.671875 238.972656 607.0625 304.910156 608.648438 305.128906 C 609.304688 305.207031 627.097656 297.0625 641.449219 276.132812 " fill-opacity="1" fill-rule="nonzero"/><path stroke-linecap="round" transform="matrix(2.990308, 0, 0, 2.989105, 11.781822, 21.64726)" fill="none" stroke-linejoin="round" d="M 210.569439 85.137707 C 215.819474 77.458778 215.550375 65.970442 214.489656 62.567459 C 213.200335 58.39998 210.30034 51.622764 205.25017 48.099552 L 178.540178 72.70584 C 178.540178 72.70584 199.070047 94.765118 199.600406 94.838301 C 199.819865 94.864437 205.770079 92.139698 210.569439 85.137707 Z M 205.17963 65.863282 C 205.17963 65.863282 207.739985 72.17004 204.489901 77.077184 Z M 205.17963 65.863282 " stroke="#ffffff" stroke-width="1.918" stroke-opacity="1" stroke-miterlimit="4"/><path fill="#666666" d="M 325.644531 539.242188 L 237.496094 554.902344 L 290.710938 499.636719 " fill-opacity="1" fill-rule="nonzero"/><path stroke-linecap="round" transform="matrix(2.990308, 0, 0, 2.989105, 11.781822, 21.64726)" fill="none" stroke-linejoin="round" d="M 104.960007 173.160499 L 75.481957 178.399578 L 93.277733 159.910557 M 75.308219 143.529453 L 112.789992 178.799468 " stroke="#ffffff" stroke-width="1.918" stroke-opacity="1" stroke-miterlimit="4"/></svg>