<svg xmlns="http://www.w3.org/2000/svg" xmlns:xlink="http://www.w3.org/1999/xlink" width="1080" zoomAndPan="magnify" viewBox="0 0 810 809.999993" height="1080" preserveAspectRatio="xMidYMid meet" version="1.0"><path fill="#21759b" d="M 80.136719 404.90625 C 80.136719 533.480469 154.875 644.597656 263.25 697.253906 L 108.265625 272.703125 C 103.636719 283.074219 99.5625 293.660156 96.042969 304.457031 C 92.527344 315.257812 89.585938 326.210938 87.222656 337.320312 C 84.859375 348.429688 83.085938 359.628906 81.902344 370.925781 C 80.714844 382.222656 80.128906 393.546875 80.136719 404.90625 Z M 624.378906 388.511719 C 624.378906 348.367188 609.957031 320.5625 597.585938 298.925781 C 581.117188 272.167969 565.679688 249.507812 565.679688 222.75 C 565.679688 192.890625 588.328125 165.09375 620.238281 165.09375 C 621.675781 165.09375 623.042969 165.273438 624.445312 165.351562 C 566.640625 112.40625 489.628906 80.078125 405.042969 80.078125 C 291.535156 80.078125 191.671875 138.304688 133.578125 226.496094 C 141.199219 226.722656 148.382812 226.882812 154.484375 226.882812 C 188.46875 226.882812 241.074219 222.761719 241.074219 222.761719 C 258.589844 221.730469 260.65625 247.449219 243.160156 249.519531 C 243.160156 249.519531 225.558594 251.589844 205.972656 252.617188 L 324.289062 604.472656 L 395.390625 391.269531 L 344.773438 252.605469 C 327.277344 251.578125 310.699219 249.507812 310.699219 249.507812 C 293.191406 248.480469 295.246094 221.71875 312.753906 222.75 C 312.753906 222.75 366.410156 226.871094 398.335938 226.871094 C 432.3125 226.871094 484.925781 222.75 484.925781 222.75 C 502.453125 221.71875 504.511719 247.4375 487.007812 249.507812 C 487.007812 249.507812 469.371094 251.578125 449.820312 252.605469 L 567.234375 601.792969 L 599.644531 493.523438 C 613.691406 448.59375 624.378906 416.320312 624.378906 388.511719 Z M 624.378906 388.511719 " fill-opacity="1" fill-rule="nonzero"/><path fill="#21759b" d="M 410.742188 433.320312 L 313.261719 716.527344 C 328.164062 720.914062 343.300781 724.21875 358.675781 726.433594 C 374.054688 728.652344 389.507812 729.761719 405.042969 729.761719 C 442.878906 729.761719 479.164062 723.222656 512.9375 711.347656 C 512.035156 709.925781 511.261719 708.433594 510.625 706.871094 Z M 690.132812 249.054688 C 691.53125 259.402344 692.324219 270.511719 692.324219 282.457031 C 692.324219 315.421875 686.164062 352.476562 667.617188 398.808594 L 568.375 685.691406 C 664.964844 629.375 729.9375 524.75 729.9375 404.910156 C 729.941406 348.433594 715.511719 295.328125 690.132812 249.054688 Z M 690.132812 249.054688 " fill-opacity="1" fill-rule="nonzero"/><path fill="#21759b" d="M 405.042969 26.253906 C 196.210938 26.253906 26.300781 196.117188 26.300781 404.90625 C 26.300781 613.71875 196.210938 783.574219 405.042969 783.574219 C 613.871094 783.574219 783.800781 613.71875 783.800781 404.90625 C 783.796875 196.117188 613.871094 26.253906 405.042969 26.253906 Z M 405.042969 766.214844 C 205.785156 766.214844 43.667969 604.132812 43.667969 404.90625 C 43.667969 205.691406 205.78125 43.617188 405.042969 43.617188 C 604.292969 43.617188 766.398438 205.691406 766.398438 404.90625 C 766.398438 604.132812 604.292969 766.214844 405.042969 766.214844 Z M 405.042969 766.214844 " fill-opacity="1" fill-rule="nonzero"/></svg>